<svg xmlns="http://www.w3.org/2000/svg" xmlns:xlink="http://www.w3.org/1999/xlink" width="71" height="55" viewBox="0 0 71 55"><defs><style>.a{fill:none;}.b{clip-path:url(#a);}.c{fill:#fff;}</style><clipPath id="a"><rect class="a" width="71" height="55" transform="translate(7942 -507)"/></clipPath></defs><g transform="translate(-7942 507)"><g class="b"><path class="c" d="M8002.1-502.1a58.544,58.544,0,0,0-14.451-4.483.221.221,0,0,0-.233.11,40.653,40.653,0,0,0-1.8,3.7,54.054,54.054,0,0,0-16.232,0,37.39,37.39,0,0,0-1.827-3.7.23.23,0,0,0-.233-.11,58.409,58.409,0,0,0-14.451,4.483.2.2,0,0,0-.095.081c-9.205,13.752-11.727,27.165-10.49,40.412a.245.245,0,0,0,.093.167,58.865,58.865,0,0,0,17.729,8.961.227.227,0,0,0,.249-.081,42.192,42.192,0,0,0,3.627-5.9.225.225,0,0,0-.123-.312,38.866,38.866,0,0,1-5.539-2.64.228.228,0,0,1-.022-.378c.372-.279.744-.569,1.1-.862a.219.219,0,0,1,.229-.031,41.988,41.988,0,0,0,35.682,0,.218.218,0,0,1,.232.028c.356.293.728.586,1.1.865a.228.228,0,0,1-.02.378,36.336,36.336,0,0,1-5.541,2.637.225.225,0,0,0-.12.315,47.122,47.122,0,0,0,3.624,5.9.223.223,0,0,0,.249.084,58.693,58.693,0,0,0,17.757-8.961.228.228,0,0,0,.092-.164,59.526,59.526,0,0,0-10.5-40.412A.181.181,0,0,0,8002.1-502.1Zm-36.378,32.427c-3.5,0-6.381-3.211-6.381-7.156s2.827-7.156,6.381-7.156c3.582,0,6.437,3.24,6.381,7.156C7972.107-472.886,7969.28-469.675,7965.726-469.675Zm23.592,0c-3.5,0-6.381-3.211-6.381-7.156s2.827-7.156,6.381-7.156c3.582,0,6.437,3.24,6.381,7.156C7995.7-472.886,7992.9-469.675,7989.318-469.675Z"/></g></g></svg>