<svg xmlns="http://www.w3.org/2000/svg" width="169" height="138" viewBox="0 0 169 138">
  <g id="Group_56" data-name="Group 56" transform="translate(-4490 -2326)">
    <rect id="Rectangle_18" data-name="Rectangle 18" width="138" height="138" rx="37.44" transform="translate(4521 2326)" fill="#8f8f95"/>
    <text id="_" data-name="?" transform="translate(4573.56 2422.6)" font-size="90" font-family="MyriadPro-Bold, Myriad Pro" font-weight="700"><tspan x="0" y="0">?</tspan></text>
    <g id="Group_12" data-name="Group 12" transform="translate(98 1124)">
      <ellipse id="Ellipse_30" data-name="Ellipse 30" cx="36.979" cy="35.335" rx="36.979" ry="35.335" transform="translate(4392.034 1212)" fill="#df004f"/>
      <ellipse id="Ellipse_31" data-name="Ellipse 31" cx="24.858" cy="24.559" rx="24.858" ry="24.559" transform="translate(4405.077 1222.85)" fill="#f2f2f2"/>
      <g id="Group_39" data-name="Group 39">
        <path id="Path_88" data-name="Path 88" d="M4413.551,1247.858a29.9,29.9,0,0,1,3.577-2.557s2.564,5.161,3.853,6.535c1.487,1.585,7.155,4.829,7.155,4.829s-3.043,3.2-4.4,3.409c-1.011.158-3-.838-3.853-1.42a44.872,44.872,0,0,1-4.128-3.409,15.788,15.788,0,0,1-2.2-2.557,7.176,7.176,0,0,1-1.1-3.125A4.343,4.343,0,0,1,4413.551,1247.858Z" fill="#df004f"/>
        <path id="Path_89" data-name="Path 89" d="M4419.88,1242.461a29.975,29.975,0,0,1,3.578-2.557s2.564,5.16,3.852,6.534c1.487,1.585,7.156,4.829,7.156,4.829s-3.043,3.2-4.4,3.409c-1.011.158-3-.838-3.852-1.42a44.721,44.721,0,0,1-4.128-3.409,15.758,15.758,0,0,1-2.2-2.557,7.189,7.189,0,0,1-1.1-3.125A4.368,4.368,0,0,1,4419.88,1242.461Z" fill="#df004f"/>
        <path id="Path_90" data-name="Path 90" d="M4425.109,1238.2l5.5-5.682,1.651-.284,2.2.569a28.054,28.054,0,0,1,3.3,1.42,22.575,22.575,0,0,1,2.477,2.841h-1.652a30.164,30.164,0,0,0-2.752-2.273c-.708-.347-2.264-1.046-3.027-.852a2.639,2.639,0,0,0-1.376,1.7,4.03,4.03,0,0,0,.551,1.705c.2.4.825,1.7.825,1.7a24.534,24.534,0,0,0,1.652,1.989,19.03,19.03,0,0,0,1.453,1.457,14.031,14.031,0,0,0,2.95,1.668,3.518,3.518,0,0,0,2.476-.284,2.872,2.872,0,0,0,.826-1.42,8.96,8.96,0,0,0-.275-1.421l-1.651-2.273,1.1-.284c.367-.219,2.251,1.92,2.477,2.557a5.711,5.711,0,0,1,.275,1.7,6.531,6.531,0,0,1-.55,2.272,11.39,11.39,0,0,1-2.2,1.989l-2.752,1.42a7.661,7.661,0,0,1-1.926,1.137,4.54,4.54,0,0,1-2.2-.568,17.818,17.818,0,0,1-1.927-1.7c-.8-.74-2.522-2.078-3.3-2.841a23.1,23.1,0,0,1-2.752-3.125A31.365,31.365,0,0,1,4425.109,1238.2Z" fill="#df004f"/>
        <path id="Path_91" data-name="Path 91" d="M4437.217,1236.916a13.912,13.912,0,0,0-1.651-.852c-.531-.166-1.784-.662-2.2-.284-.155.14-.039.643,0,.852a4.984,4.984,0,0,0,.55,1.421,13.161,13.161,0,0,0,.826,1.136c.3.33,1.238,1.278,1.238,1.278a17.815,17.815,0,0,0,1.926,1.137,4.529,4.529,0,0,0,1.376.284c.284-.015.934-.048,1.1-.284a1.663,1.663,0,0,0,0-1.137c-.093-.237-.3-.768-.413-.994-.1-.2-.412-.71-.412-.71a21.252,21.252,0,0,1,4.4-.284,1.148,1.148,0,0,1,.55.284c.672.944,1.031,3.376,1.1,4.545.046.78.011,2.344,0,3.125-.012.852-.023,2.557,0,3.409a6.532,6.532,0,0,0,.55,2.841,2.75,2.75,0,0,0,1.376.568,2.187,2.187,0,0,0,1.376-.284c.317-.282.074-.55-.1-.94-.107-.231-.9-.7-1.074-.88-.43-.455-.373-2.1-.472-2.725a22.439,22.439,0,0,1,.318-4.019,30.25,30.25,0,0,0,0-3.666c-.087-.554-.456-2.116-.456-2.116a17.293,17.293,0,0,0-1.232-1.842c-.511-.5-1.907-.434-2.608-.44-.769-.007-2.9.151-2.9.151Z" fill="#df004f"/>
      </g>
      <path id="Path_92" data-name="Path 92" d="M4404.58,1220.913l6.328,3.55,6.444-4.839-2.762-4.838s-3.3,1.479-3.989,1.906-3.8,2.288-4.45,2.786C4405.728,1219.8,4404.58,1220.913,4404.58,1220.913Z" fill="#f2f2f2"/>
      <path id="Path_93" data-name="Path 93" d="M4441.136,1213.793l-.085,7.011,7.594,2.945,3.025-4.692s-2.98-2-3.711-2.364-3.967-2.019-4.74-2.309C4442.713,1214.195,4441.136,1213.793,4441.136,1213.793Z" fill="#f2f2f2"/>
      <path id="Path_94" data-name="Path 94" d="M4464.958,1238.463l-6.484,2.861,1.332,8.381,6.034.123s.2-3.467.153-4.252-.376-4.315-.508-5.1C4465.4,1239.965,4464.958,1238.463,4464.958,1238.463Z" fill="#f2f2f2"/>
      <path id="Path_95" data-name="Path 95" d="M4459.4,1267.568l-7.212-2.492-5.164,6.993,4.074,3.9s2.73-2.3,3.268-2.9,3.179-3.091,3.653-3.742C4458.325,1268.9,4459.4,1267.568,4459.4,1267.568Z" fill="#f2f2f2"/>
      <path id="Path_96" data-name="Path 96" d="M4429.1,1282.891l-2.37-6.636-8.187-.354-1.213,5.389s3.509.936,4.325,1.044,4.444.638,5.274.664C4427.471,1283.016,4429.1,1282.891,4429.1,1282.891Z" fill="#f2f2f2"/>
      <path id="Path_97" data-name="Path 97" d="M4394.95,1260.971l5.629-4.817-2.924-7.316-5.655,1.085s.426,3.546.648,4.3,1.229,4.248,1.534,4.985C4394.382,1259.694,4394.95,1260.971,4394.95,1260.971Z" fill="#f2f2f2"/>
    </g>
  </g>
</svg>
