<svg xmlns="http://www.w3.org/2000/svg" width="308.223" height="288" viewBox="0 0 308.223 288"><defs><style>.a{fill:#df004f;}.b{fill:#f2f2f2;}</style></defs><g transform="translate(-4410.777 -161)"><ellipse class="a" cx="154.026" cy="143.331" rx="154.026" ry="143.331" transform="translate(4410.919 161)"/><ellipse class="b" cx="103.536" cy="99.618" rx="103.536" ry="99.618" transform="translate(4465.244 205.01)"/><path class="a" d="M4500.54,306.453c3.176-3.249,14.9-10.371,14.9-10.371s10.68,20.931,16.047,26.5c6.192,6.43,29.8,19.59,29.8,19.59s-12.673,12.966-18.34,13.829c-4.212.641-12.493-3.4-16.047-5.762a185.077,185.077,0,0,1-17.193-13.828c-2.54-2.348-7.4-7.392-9.17-10.372-1.718-2.9-4.985-9.328-4.585-12.676C4496.2,311.3,4499.092,307.935,4500.54,306.453Z"/><path class="a" d="M4526.9,284.558c3.176-3.249,14.9-10.371,14.9-10.371s10.68,20.931,16.047,26.5c6.192,6.43,29.8,19.591,29.8,19.591s-12.673,12.965-18.339,13.828c-4.212.641-12.494-3.4-16.048-5.762a184.944,184.944,0,0,1-17.193-13.828c-2.54-2.348-7.4-7.392-9.17-10.372-1.718-2.9-4.985-9.328-4.585-12.675C4522.565,289.41,4525.455,286.04,4526.9,284.558Z"/><path class="a" d="M4548.682,267.273l22.924-23.047,6.878-1.153,9.169,2.305s10.593,3.783,13.755,5.762c2.586,1.618,10.316,11.523,10.316,11.523h-6.877s-9.236-8.156-11.462-9.218c-2.952-1.409-9.433-4.242-12.609-3.458-2.267.561-5.473,4.68-5.731,6.915-.222,1.919,1.407,5.2,2.292,6.914.835,1.617,3.439,6.914,3.439,6.914a100.125,100.125,0,0,0,6.877,8.067c1.547,1.377,4.32,4.775,6.052,5.908,2.933,1.917,8.9,5.878,12.288,6.768,2.511.659,8.4.6,10.316-1.153,1.341-1.226,3.288-3.946,3.439-5.762.095-1.148-1.146-5.761-1.146-5.761l-6.878-9.219,4.585-1.153c1.528-.89,9.374,7.785,10.316,10.372a22.589,22.589,0,0,1,1.146,6.914c0,2.1-1.114,7.221-2.292,9.219-1.666,2.825-9.17,8.066-9.17,8.066l-11.462,5.762s-5.735,4.292-8.024,4.609c-2.341.325-7.139-1.089-9.17-2.3-2.269-1.36-6.054-5.143-8.023-6.915-3.336-3-10.5-8.429-13.755-11.523-3.094-2.944-9.164-9.07-11.462-12.676C4552.545,277.018,4548.682,267.273,4548.682,267.273Z"/><path class="a" d="M4599.116,262.069a58.583,58.583,0,0,0-6.878-3.457c-2.211-.673-7.433-2.684-9.17-1.153-.646.57-.162,2.609,0,3.457a19.873,19.873,0,0,0,2.293,5.762,54.1,54.1,0,0,0,3.439,4.61c1.261,1.339,5.158,5.185,5.158,5.185s5.86,3.8,8.023,4.61a19.25,19.25,0,0,0,5.731,1.152c1.18-.06,3.888-.193,4.585-1.152.676-.931.431-3.542,0-4.61-.388-.962-1.235-3.116-1.719-4.033-.425-.8-1.719-2.881-1.719-2.881s13.838-2.073,18.339-1.152a4.852,4.852,0,0,1,2.293,1.152c2.8,3.83,4.3,13.7,4.585,18.438.192,3.163.046,9.507,0,12.676-.051,3.457-.1,10.372,0,13.828.08,2.937.5,9.2,2.292,11.524.945,1.226,4.21,2.043,5.731,2.3,1.44.248,4.626-.192,5.731-1.153,1.319-1.146.309-2.232-.439-3.815-.443-.938-3.753-2.824-4.474-3.568-1.788-1.846-1.553-8.511-1.964-11.055-.649-4.021,1.325-16.3,1.325-16.3s.6-11.171,0-14.868c-.363-2.248-1.9-8.585-1.9-8.585s-3.812-6.225-5.132-7.473c-2.13-2.012-7.943-1.758-10.865-1.784-3.2-.028-12.086.614-12.086.614Z"/><path class="b" d="M4463.173,197.153l26.357,14.4,26.843-19.626-11.5-19.626s-13.738,6-16.617,7.731c-2.9,1.747-15.842,9.284-18.534,11.3C4467.955,192.652,4463.173,197.153,4463.173,197.153Z"/><path class="b" d="M4615.435,168.273l-.353,28.439,31.631,11.946,12.6-19.034s-12.415-8.121-15.459-9.587c-3.07-1.479-16.523-8.192-19.741-9.366C4622.007,169.9,4615.435,168.273,4615.435,168.273Z"/><path class="b" d="M4714.66,268.342l-27.005,11.6,5.547,34,25.13.5s.831-14.062.639-17.247c-.193-3.211-1.565-17.5-2.116-20.678C4716.5,274.436,4714.66,268.342,4714.66,268.342Z"/><path class="b" d="M4691.489,386.4l-30.038-10.11-21.511,28.367,16.968,15.826s11.372-9.35,13.612-11.765c2.258-2.435,13.243-12.541,15.217-15.181C4687.031,391.812,4691.489,386.4,4691.489,386.4Z"/><path class="b" d="M4565.3,448.558l-9.869-26.918-34.1-1.434-5.05,21.856s14.616,3.8,18.012,4.235c3.424.44,18.513,2.589,21.968,2.7C4558.52,449.064,4565.3,448.558,4565.3,448.558Z"/><path class="b" d="M4423.063,359.641l23.447-19.536-12.179-29.676-23.554,4.4s1.776,14.382,2.7,17.453c.931,3.1,5.12,17.23,6.391,20.221C4420.7,354.463,4423.063,359.641,4423.063,359.641Z"/></g></svg>