<svg xmlns="http://www.w3.org/2000/svg" width="64" height="47.791" viewBox="0 0 64 47.791"><defs><style>.a{fill:#fefefe;fill-rule:evenodd;}</style></defs><path class="a" d="M8161.95-482.24c.244,0,.486.009.725.024l8.848-12.665h0a14.078,14.078,0,0,1,14.239-13.91A14.077,14.077,0,0,1,8200-494.881a14.076,14.076,0,0,1-14.238,13.909c-.11,0-.219,0-.328,0l-12.629,8.773h0c.011.193.017.387.017.583A10.748,10.748,0,0,1,8161.95-461a10.807,10.807,0,0,1-10.7-8.719l-13.729-5.529a35.755,35.755,0,0,1-1.415-13.157l19.6,8.089a11,11,0,0,1,6.24-1.924Zm23.854-19.712a7.113,7.113,0,0,1,7.195,7.029,7.113,7.113,0,0,1-7.195,7.029,7.113,7.113,0,0,1-7.2-7.029,7.113,7.113,0,0,1,7.2-7.029Zm0-2.174a9.313,9.313,0,0,1,9.419,9.2,9.313,9.313,0,0,1-9.419,9.2,9.313,9.313,0,0,1-9.42-9.2,9.314,9.314,0,0,1,9.42-9.2ZM8161.95-479.44a7.915,7.915,0,0,1,8.006,7.82,7.916,7.916,0,0,1-8.006,7.821,8.019,8.019,0,0,1-7.269-4.542c1.851.745,5.129,2.392,7.02,2.392a5.861,5.861,0,0,0,5.928-5.791c0-4.882-4.883-5.673-8.545-7.184a8.164,8.164,0,0,1,2.866-.516Z" transform="translate(-8136 508.791)"/></svg>