<svg xmlns="http://www.w3.org/2000/svg" width="62.859" height="47.7" viewBox="0 0 62.859 47.7"><defs><style>.a{fill:#fff;}</style></defs><path class="a" d="M7816.05-497.185a27.543,27.543,0,0,1-6.371,1.616c1.014-.149,2.489-1.849,3.093-2.536a10.566,10.566,0,0,0,2.111-3.544c.056-.1.089-.228-.018-.306a.389.389,0,0,0-.338.022,33.485,33.485,0,0,1-7.494,2.6.524.524,0,0,1-.515-.133,5.853,5.853,0,0,0-.646-.63,13.42,13.42,0,0,0-3.6-2.109,13.393,13.393,0,0,0-5.538-.891,13.992,13.992,0,0,0-5.277,1.338,13.424,13.424,0,0,0-4.277,3.2,11.891,11.891,0,0,0-2.582,4.723,12.032,12.032,0,0,0-.185,5.012c.038.28.011.318-.26.277-10.24-1.529-18.7-5.045-25.532-12.466-.3-.322-.459-.324-.708.017-3.062,4.2-1.664,11.017,2.074,14.4.5.451,1.011.9,1.564,1.313a13.79,13.79,0,0,1-4.937-1.347c-.3-.18-.449-.079-.479.238a6.866,6.866,0,0,0,.067,1.375,12.467,12.467,0,0,0,8.01,9.887,8.015,8.015,0,0,0,1.641.487,15.66,15.66,0,0,1-4.857.092c-.353-.067-.49.1-.358.416,2.082,5.467,6.677,7.132,10.121,8.09.462.08.925.085,1.387.191-.028.039-.056.038-.083.076-1.162,1.622-5.145,2.8-7,3.384a26.541,26.541,0,0,1-10.593,1.16c-.568-.084-.687-.079-.842-.008-.158.089-.022.217.159.357.717.453,1.447.855,2.191,1.244a36.472,36.472,0,0,0,7.047,2.716c12.678,3.409,27.019,1.14,36.651-7.632,7.564-6.89,10.286-16.466,10.382-26.081,0-.377.481-.58.766-.776a24.446,24.446,0,0,0,5.14-4.79,1.832,1.832,0,0,0,.454-.922v-.051C7816.422-497.334,7816.3-497.29,7816.05-497.185Z" transform="translate(-7753.561 503.115)"/></svg>